<?xml version="1.0" standalone="no"?>
<!DOCTYPE svg PUBLIC "-//W3C//DTD SVG 20010904//EN"
 "http://www.w3.org/TR/2001/REC-SVG-20010904/DTD/svg10.dtd">
<svg version="1.0" xmlns="http://www.w3.org/2000/svg"
 width="1200.000000pt" height="1200.000000pt" viewBox="0 0 1200.000000 1200.000000"
 preserveAspectRatio="xMidYMid meet">
<metadata>
Created by potrace 1.14, written by Peter Selinger 2001-2017
</metadata>
<g transform="translate(0.000000,1200.000000) scale(0.100000,-0.100000)"
fill="#000000" stroke="none">
<path d="M5605 11989 c-1744 -122 -3326 -976 -4387 -2369 -650 -854 -1062
-1884 -1182 -2955 -47 -415 -49 -909 -6 -1305 151 -1386 751 -2641 1730 -3620
966 -966 2216 -1570 3570 -1725 194 -22 1165 -22 1360 0 1739 198 3302 1143
4294 2597 545 799 891 1732 1001 2698 22 195 22 1166 0 1360 -155 1354 -759
2604 -1725 3570 -1038 1038 -2384 1648 -3860 1750 -165 11 -630 11 -795 -1z
m995 -143 c407 -46 758 -116 1109 -221 2071 -624 3645 -2353 4070 -4470 126
-630 149 -1303 65 -1935 -347 -2636 -2428 -4717 -5064 -5064 -531 -70 -1120
-65 -1650 15 -2241 338 -4101 1949 -4755 4120 -106 352 -176 705 -221 1109
-22 196 -30 778 -15 993 75 1026 399 1987 956 2832 434 660 1020 1246 1680
1680 832 548 1770 869 2790 954 176 15 865 6 1035 -13z"/>
<path d="M5946 11645 c-5 -40 -25 -365 -38 -600 l-3 -40 90 -5 c50 -3 91 -5
92 -5 1 0 5 59 9 130 5 116 3 146 -21 273 -14 79 -25 145 -23 147 2 2 48 -124
102 -281 l99 -284 63 0 c34 0 68 -2 76 -5 9 -4 54 77 148 266 74 149 138 272
141 274 3 3 -16 -65 -42 -150 -42 -133 -49 -170 -56 -278 l-8 -124 90 -6 c49
-3 90 -5 91 -4 5 6 44 680 40 685 -8 8 -241 21 -247 14 -3 -4 -50 -101 -104
-215 -55 -115 -101 -205 -102 -200 -2 4 -32 104 -68 222 -36 118 -66 216 -68
217 -2 2 -60 7 -129 11 l-127 8 -5 -50z"/>
<path d="M5481 11659 c-52 -5 -96 -11 -99 -13 -6 -6 43 -674 50 -681 3 -3 92
1 199 10 107 8 207 15 223 15 l29 0 -7 57 c-4 31 -8 59 -10 60 -2 2 -86 -2
-187 -10 -101 -8 -185 -13 -187 -12 -1 1 27 34 63 73 l65 70 -15 194 c-8 106
-15 205 -15 221 0 15 -3 26 -7 26 -5 -1 -50 -6 -102 -10z"/>
<path d="M4918 11576 c-86 -17 -160 -34 -163 -38 -5 -5 -35 -692 -30 -704 0
-1 47 7 105 19 l106 20 -4 119 c-3 65 -2 118 1 118 9 0 200 -112 221 -129 10
-9 22 -26 27 -39 6 -16 15 -22 27 -18 9 3 56 12 104 22 48 9 86 19 84 23 -1 3
-65 149 -141 324 -120 276 -141 317 -159 316 -12 -1 -92 -15 -178 -33z m172
-397 c0 -3 -28 -12 -62 -18 -35 -7 -71 -14 -80 -17 -17 -5 -18 8 -18 169 0
272 0 272 86 56 41 -101 74 -186 74 -190z"/>
<path d="M6954 11596 c-17 -54 -134 -660 -127 -666 8 -7 406 -90 430 -90 13 0
36 92 25 101 -4 3 -56 16 -116 27 -60 12 -111 24 -114 27 -6 5 28 177 37 187
3 4 47 -2 96 -12 50 -11 95 -19 102 -20 11 0 30 77 21 85 -2 3 -38 11 -79 20
-123 25 -119 23 -119 50 0 14 -24 58 -55 101 -30 43 -53 79 -51 81 2 2 79 -12
172 -32 93 -19 174 -35 180 -35 10 0 38 89 31 97 -1 1 -98 21 -216 46 -139 28
-214 40 -217 33z"/>
<path d="M7513 11477 c-17 -28 -212 -642 -205 -648 4 -4 48 -20 99 -37 l92
-30 54 161 54 162 38 -59 c20 -32 49 -81 63 -108 25 -49 25 -49 9 -102 -9 -29
-17 -68 -17 -87 l0 -35 88 -28 c48 -16 93 -31 100 -33 8 -4 12 5 12 26 0 16
11 65 25 108 14 43 25 89 25 102 0 22 -44 73 -85 98 -18 11 -16 12 18 12 49 1
101 26 122 58 26 38 55 132 55 173 0 78 -66 119 -348 214 -137 46 -194 61
-199 53z m272 -195 c41 -72 47 -89 42 -123 -8 -59 -31 -89 -69 -89 -42 0 -138
31 -138 44 0 6 21 73 46 149 52 157 41 155 119 19z"/>
<path d="M4378 11448 c-49 -16 -88 -35 -88 -42 0 -6 18 -66 40 -131 22 -65 40
-122 40 -125 0 -3 -33 -17 -72 -29 -40 -13 -78 -26 -84 -28 -6 -2 -29 48 -54
119 -23 68 -46 127 -50 132 -6 6 -200 -49 -200 -58 0 -2 208 -626 214 -643 4
-9 32 -3 98 19 51 17 96 34 100 37 5 4 -19 87 -52 186 -33 98 -58 180 -57 182
2 2 52 -18 110 -44 l107 -46 36 -109 c19 -59 39 -108 43 -108 11 0 183 59 189
64 8 8 -212 656 -223 655 -5 0 -49 -14 -97 -31z"/>
<path d="M3685 11189 c-53 -13 -231 -98 -301 -145 -70 -46 -97 -86 -91 -134 6
-51 209 -463 238 -483 56 -40 169 -14 349 78 105 55 160 109 160 158 0 34 -49
157 -62 157 -7 0 -168 -78 -176 -85 -2 -2 10 -30 27 -64 17 -33 31 -67 31 -74
0 -19 -40 -55 -76 -67 -59 -21 -65 -12 -203 268 -72 144 -125 262 -118 262 7
0 53 -11 102 -25 66 -18 95 -31 111 -50 l20 -26 87 40 c48 22 87 43 87 46 0
13 -60 122 -73 133 -21 17 -67 22 -112 11z"/>
<path d="M8195 11165 c-33 -35 -95 -167 -95 -204 0 -30 39 -70 154 -156 59
-43 109 -88 112 -100 5 -18 -93 -242 -102 -233 -1 2 -24 52 -49 111 -38 89
-44 111 -34 128 6 11 9 22 7 24 -2 1 -42 20 -89 42 l-86 41 -18 -37 c-63 -130
-20 -197 193 -299 99 -48 128 -57 184 -60 56 -4 72 -1 97 18 42 29 101 153
101 212 0 52 -23 77 -160 178 -92 67 -100 75 -100 104 0 19 81 206 90 206 3 0
25 -46 49 -102 36 -85 42 -107 34 -129 -10 -25 -8 -27 74 -68 l84 -41 24 52
c36 78 34 129 -9 171 -37 37 -205 127 -293 158 -87 30 -129 26 -168 -16z"/>
<path d="M5870 10783 c-2227 -64 -4119 -1656 -4560 -3837 -35 -174 -38 -211
-14 -202 14 6 100 28 414 110 122 31 602 157 790 206 163 43 647 169 787 206
704 183 902 237 953 260 67 31 137 96 199 189 26 39 119 194 206 345 196 340
340 589 614 1065 117 204 268 465 336 580 67 116 160 277 206 358 87 154 144
231 178 240 15 4 18 1 13 -12 -7 -20 -13 -30 -787 -1371 -917 -1588 -826
-1426 -788 -1406 62 33 116 75 137 107 23 34 203 343 454 779 74 129 198 345
277 480 78 135 210 364 295 510 309 535 362 610 430 610 71 0 139 -99 513
-750 74 -129 145 -252 157 -273 18 -31 21 -43 12 -60 -6 -12 -13 -34 -16 -49
-8 -36 -55 -81 -166 -157 -249 -173 -410 -324 -410 -385 0 -10 134 -333 297
-717 201 -475 305 -709 324 -728 40 -42 99 -74 251 -137 149 -62 681 -242 917
-310 165 -48 205 -65 265 -113 22 -17 50 -34 62 -37 20 -5 169 -253 444 -739
9 -16 75 -129 145 -250 71 -121 147 -254 170 -295 23 -41 71 -124 107 -185
141 -238 300 -526 324 -586 28 -69 34 -130 15 -153 -7 -8 -36 -23 -64 -33 -50
-17 -197 -18 -3357 -18 l-3305 0 -50 25 c-34 17 -51 33 -56 50 -14 57 43 193
179 422 27 46 93 160 147 253 99 171 302 523 425 735 37 63 103 178 147 255
44 77 130 226 191 330 60 105 122 213 137 240 16 28 83 145 150 260 186 318
338 582 378 656 l36 66 -41 12 c-34 11 -43 10 -50 -1 -4 -7 -417 -722 -918
-1588 -1117 -1932 -1040 -1801 -1051 -1794 -30 18 7 97 202 436 100 172 241
417 314 543 155 269 308 533 465 805 62 107 179 310 259 450 305 529 495 856
516 890 31 50 49 104 41 125 -10 26 -93 15 -326 -46 -327 -85 -444 -116 -720
-188 -146 -39 -326 -86 -400 -105 -203 -53 -304 -79 -540 -141 -118 -31 -264
-69 -325 -85 -60 -16 -182 -47 -270 -70 -88 -23 -189 -50 -225 -59 -63 -16
-64 -17 -72 -56 -15 -72 -25 -451 -17 -657 70 -1816 1172 -3439 2839 -4181
864 -385 1832 -504 2780 -341 1082 185 2092 761 2814 1604 600 701 994 1580
1109 2478 l13 102 -315 104 c-1045 345 -1960 644 -1983 650 -27 6 -27 5 -17
-21 5 -15 14 -32 18 -38 5 -5 97 -165 206 -355 109 -190 244 -424 300 -520 55
-96 173 -299 260 -450 87 -151 213 -369 281 -485 158 -273 174 -305 174 -357
0 -25 -4 -38 -9 -32 -8 8 -891 1534 -1559 2694 -351 610 -387 672 -460 796
-38 66 -104 179 -144 250 -41 71 -149 257 -240 414 -91 157 -226 391 -300 520
-74 129 -313 543 -530 920 -218 377 -405 704 -417 727 l-21 42 22 -8 c39 -14
95 -97 270 -401 378 -656 444 -768 490 -836 26 -39 48 -81 48 -92 0 -11 18
-56 41 -100 33 -64 46 -81 67 -85 21 -4 38 -24 76 -91 28 -47 57 -88 65 -90 9
-2 45 -7 81 -11 129 -12 2985 -223 2988 -220 5 5 -107 184 -205 330 -552 812
-1361 1441 -2299 1788 -558 206 -1187 308 -1794 290z m3800 -6878 c-7 -8 -29
-19 -49 -25 -49 -14 -7172 -14 -7221 0 -20 5 -45 16 -55 25 -18 13 411 14
3659 15 3250 0 3677 -2 3666 -15z"/>
<path d="M7521 7831 c12 -20 35 -59 51 -88 29 -51 29 -51 96 -63 115 -21 2977
-477 2980 -475 4 3 -59 219 -66 227 -6 6 -2912 419 -3035 431 l-48 5 22 -37z"/>
<path d="M7770 7484 c0 -4 15 -32 34 -63 66 -110 65 -105 12 -99 -25 3 -46 3
-46 -1 1 -3 22 -42 48 -85 47 -78 49 -80 110 -100 66 -22 63 -20 130 -137 l32
-57 -37 9 c-56 13 -78 12 -66 -3 6 -7 25 -40 43 -73 45 -83 52 -90 118 -109
57 -18 58 -19 105 -101 26 -45 47 -85 47 -87 0 -2 -16 -2 -37 0 l-36 5 23 -39
c76 -129 80 -132 137 -154 119 -44 2398 -737 2405 -731 14 13 9 579 -7 761
-13 146 -70 537 -80 548 -3 3 -2797 501 -2892 516 -24 3 -43 3 -43 0z"/>
<path d="M2310 2360 l-33 -42 63 -57 63 -57 -179 -195 c-99 -107 -188 -206
-199 -218 l-20 -23 75 -69 c41 -38 78 -69 82 -69 4 0 73 73 154 161 l147 162
-7 105 -6 104 118 -110 119 -111 37 38 37 38 -173 158 c-95 87 -189 174 -209
192 l-36 34 -33 -41z"/>
<path d="M9603 2296 c-57 -26 -124 -77 -263 -200 -74 -66 -139 -122 -143 -126
-9 -8 437 -514 456 -517 7 -1 45 28 85 65 l72 67 -111 125 -111 125 93 5 c131
7 153 1 210 -59 27 -28 57 -51 66 -51 10 0 53 32 96 70 74 66 77 71 55 79 -13
5 -54 41 -92 80 -63 65 -72 71 -110 71 -23 0 -55 -9 -74 -20 l-33 -20 14 27
c42 83 28 143 -51 225 -64 66 -103 79 -159 54z m42 -243 c50 -55 47 -83 -17
-144 -28 -27 -55 -48 -59 -47 -4 2 -53 54 -109 116 l-101 112 126 0 126 0 34
-37z"/>
<path d="M2582 1713 c-191 -259 -202 -276 -184 -289 11 -7 92 -67 182 -134 89
-66 165 -120 169 -120 8 0 61 71 61 82 0 3 -43 36 -95 74 -52 38 -95 72 -95
75 0 5 100 143 114 156 3 3 41 -23 85 -57 45 -33 85 -58 91 -55 5 3 18 19 30
35 l21 29 -84 63 c-78 59 -82 65 -73 89 6 18 4 54 -8 114 -9 49 -15 90 -13 91
2 2 70 -46 151 -106 82 -61 150 -110 151 -110 1 0 15 18 30 40 24 35 26 43 14
54 -29 27 -330 246 -337 245 -4 0 -98 -124 -210 -276z"/>
<path d="M8784 1954 c-49 -24 -78 -60 -78 -97 0 -38 35 -93 65 -102 60 -19
159 44 159 101 0 50 -55 113 -100 113 -8 0 -29 -6 -46 -15z m71 -68 c18 -27
11 -52 -17 -67 -46 -25 -88 32 -53 71 24 27 51 25 70 -4z"/>
<path d="M8890 1751 c-79 -54 -146 -103 -148 -109 -3 -9 241 -638 252 -650 4
-3 45 21 91 52 97 66 94 50 34 185 -28 63 -35 87 -25 89 8 2 67 -4 132 -12 88
-12 123 -21 139 -36 l21 -19 87 57 c47 31 86 60 84 64 -4 12 -505 478 -514
477 -4 0 -73 -44 -153 -98z m163 -159 l148 -148 -69 -47 -70 -46 -72 171 c-77
184 -91 218 -87 218 1 0 69 -67 150 -148z"/>
<path d="M3017 1407 c-92 -161 -168 -296 -169 -302 0 -8 158 -105 174 -105 4
0 42 61 85 135 43 74 81 135 85 135 17 0 28 -87 28 -232 l0 -156 88 -51 87
-51 3 191 c2 177 1 194 -18 226 l-20 35 170 81 c93 45 170 84 170 87 0 3 -38
27 -85 54 l-85 48 -147 -82 c-82 -46 -152 -85 -157 -88 -6 -3 -1 10 11 29 70
115 134 231 131 234 -6 6 -177 105 -180 105 -2 -1 -79 -132 -171 -293z"/>
<path d="M8500 1503 c-36 -6 -257 -116 -308 -152 -60 -44 -79 -88 -63 -143 17
-57 87 -175 112 -189 26 -13 72 -6 222 37 90 26 123 31 138 24 18 -10 125
-208 116 -216 -2 -2 -51 8 -108 22 -71 18 -111 34 -125 49 l-21 23 -76 -42
c-42 -23 -79 -45 -83 -48 -12 -13 50 -110 80 -125 68 -35 225 13 382 119 126
85 135 153 39 304 -48 75 -75 81 -196 50 -52 -14 -114 -32 -138 -40 -58 -21
-74 -20 -98 7 -31 33 -106 187 -91 187 7 0 56 -11 108 -25 66 -17 100 -31 113
-46 l18 -22 80 38 c43 22 79 43 79 47 0 13 -30 68 -53 100 -11 15 -34 32 -50
38 -31 10 -34 10 -77 3z"/>
<path d="M3751 1349 c-5 -13 -64 -156 -130 -318 -67 -161 -119 -296 -117 -299
3 -3 35 -17 70 -32 l64 -27 65 156 c48 116 70 186 86 270 12 63 23 116 25 118
2 2 7 -83 11 -189 4 -106 10 -249 14 -317 l6 -124 112 -45 c62 -25 115 -43
119 -40 8 8 265 630 262 633 -2 1 -28 12 -58 24 -30 13 -60 25 -66 27 -6 3
-49 -91 -100 -212 l-89 -218 -7 135 c-4 74 -10 190 -14 259 l-6 125 -101 42
c-56 23 -110 45 -119 49 -13 4 -20 -1 -27 -17z"/>
<path d="M7757 1170 c-87 -32 -161 -61 -165 -65 -5 -5 76 -693 82 -702 1 -1
46 14 99 34 111 40 104 27 82 169 -9 53 -15 98 -13 99 2 2 55 -17 118 -41 77
-30 123 -54 140 -72 l25 -28 98 36 98 36 -189 294 c-104 162 -196 296 -203
297 -8 1 -85 -25 -172 -57z m133 -213 c51 -87 91 -159 89 -161 -2 -2 -36 -15
-76 -29 l-72 -26 -5 27 c-6 27 -56 368 -56 380 0 10 20 -22 120 -191z"/>
<path d="M4391 1056 c-49 -150 -183 -598 -179 -600 7 -6 177 -56 189 -56 10 0
47 108 113 326 54 179 96 327 94 330 -3 2 -48 17 -101 33 l-96 29 -20 -62z"/>
<path d="M7245 1013 c-11 -2 -105 -23 -210 -45 -104 -23 -192 -43 -194 -44 -5
-5 141 -658 150 -668 11 -12 456 91 504 117 75 41 87 100 49 234 -18 66 -53
92 -131 100 l-56 6 36 18 c75 39 92 93 62 197 -23 76 -45 92 -124 91 -36 -1
-75 -3 -86 -6z m-20 -162 c65 -43 74 -117 18 -139 -45 -18 -123 -35 -130 -29
-5 6 -62 239 -63 260 0 9 108 -48 175 -92z m-22 -242 c116 -67 134 -84 142
-128 11 -68 0 -78 -127 -110 l-37 -9 -25 106 c-33 142 -40 182 -31 182 3 0 39
-19 78 -41z"/>
<path d="M4740 1004 c-45 -16 -61 -31 -80 -77 -28 -63 -39 -199 -20 -223 17
-20 105 -64 207 -105 97 -38 103 -43 103 -88 0 -32 -35 -210 -43 -217 -2 -2
-36 40 -75 94 -54 72 -72 103 -67 119 4 19 -1 23 -52 33 -32 7 -75 15 -95 20
-43 9 -45 6 -54 -74 -8 -67 11 -107 69 -140 79 -47 309 -94 390 -81 89 15 126
73 134 210 5 75 4 83 -18 108 -16 18 -70 47 -154 82 -72 30 -136 63 -143 74
-11 16 -11 33 2 103 29 153 21 149 99 48 48 -64 67 -97 67 -119 0 -29 2 -30
78 -46 42 -9 82 -18 89 -20 12 -4 33 73 33 121 0 41 -28 83 -71 105 -76 38
-353 89 -399 73z"/>
<path d="M5310 894 c0 -5 -12 -159 -26 -342 -15 -183 -25 -335 -23 -337 3 -2
50 -7 105 -11 l101 -7 6 59 c4 33 9 103 13 157 4 54 10 100 15 102 16 11 85
-114 185 -333 2 -4 199 -19 203 -16 6 6 -118 284 -145 326 -13 21 -35 40 -49
44 -14 3 -25 9 -25 13 0 3 54 74 119 156 l119 150 -61 6 c-34 4 -81 7 -104 8
l-42 1 -96 -141 c-54 -77 -99 -138 -101 -136 -3 2 1 68 7 146 6 78 10 143 8
145 -9 8 -209 17 -209 10z"/>
<path d="M6195 869 c-77 -3 -164 -7 -192 -8 l-53 -1 0 -50 0 -50 85 0 c47 0
85 -1 86 -2 0 -2 6 -132 13 -290 6 -158 14 -289 16 -290 3 -2 52 -2 108 0
l104 3 -6 122 c-4 67 -9 169 -12 227 l-6 105 -42 36 c-22 20 -57 50 -76 67
l-35 31 86 1 c47 0 120 3 162 6 l77 7 0 48 0 49 -87 -2 c-49 -1 -151 -5 -228
-9z"/>
</g>
</svg>
