<?xml version="1.0" standalone="no"?>
<!DOCTYPE svg PUBLIC "-//W3C//DTD SVG 20010904//EN"
 "http://www.w3.org/TR/2001/REC-SVG-20010904/DTD/svg10.dtd">
<svg version="1.0" xmlns="http://www.w3.org/2000/svg"
 width="700.000000pt" height="700.000000pt" viewBox="0 0 700.000000 700.000000"
 preserveAspectRatio="xMidYMid meet">
<metadata>
Created by potrace 1.14, written by Peter Selinger 2001-2017
</metadata>
<g transform="translate(0.000000,700.000000) scale(0.100000,-0.100000)"
fill="#000000" stroke="none">
<path d="M3488 6845 c-1 -1 -66 -6 -143 -9 -77 -3 -158 -8 -180 -11 -22 -3
-60 -7 -85 -10 -66 -8 -220 -35 -260 -45 -19 -5 -47 -11 -62 -14 -15 -2 -62
-14 -105 -26 -422 -114 -802 -300 -1148 -559 -108 -82 -114 -87 -184 -146 -53
-45 -279 -271 -331 -330 -357 -406 -616 -906 -740 -1428 -16 -67 -31 -135 -34
-152 -17 -91 -26 -146 -31 -194 -4 -30 -8 -63 -11 -74 -16 -85 -22 -438 -10
-606 6 -91 28 -279 39 -336 3 -11 8 -38 12 -60 4 -22 9 -51 11 -64 20 -107
120 -432 166 -541 10 -25 27 -63 36 -85 97 -228 308 -584 440 -741 15 -17 45
-53 67 -80 384 -467 930 -840 1516 -1034 188 -63 424 -118 574 -135 33 -4 62
-9 65 -10 17 -10 225 -20 415 -20 198 0 325 7 410 20 17 3 48 7 70 10 22 3 65
10 95 15 30 5 66 11 80 14 54 9 210 48 310 78 417 123 836 347 1180 632 113
93 230 205 370 355 14 15 136 163 153 186 4 5 21 28 37 49 87 113 227 341 305
496 96 190 202 474 251 670 14 56 64 315 69 360 4 30 8 69 11 86 12 99 16 179
18 346 2 183 -2 264 -25 443 -11 85 -13 103 -23 158 -2 12 -7 40 -11 62 -4 22
-14 67 -22 100 -8 33 -16 68 -18 77 -8 38 -47 169 -78 263 -122 359 -320 722
-553 1011 -154 192 -349 390 -494 504 -25 19 -47 37 -50 41 -13 16 -205 152
-290 206 -88 55 -131 80 -250 145 -189 103 -578 247 -790 292 -97 20 -299 57
-342 61 -29 3 -66 8 -83 10 -16 2 -95 7 -175 10 -80 4 -150 8 -157 10 -6 2
-13 2 -15 0z m227 -249 c297 -24 520 -69 792 -161 460 -156 849 -400 1203
-755 321 -322 544 -660 705 -1070 62 -158 140 -431 160 -560 4 -25 9 -52 10
-61 8 -44 19 -120 31 -224 15 -127 7 -645 -11 -675 -1 -3 -6 -30 -9 -61 -7
-59 -8 -67 -27 -159 -245 -1226 -1236 -2209 -2464 -2444 -147 -28 -207 -36
-370 -51 -65 -6 -411 -7 -460 -1 -16 2 -66 7 -110 11 -44 3 -82 8 -85 10 -3 1
-27 6 -55 9 -27 4 -72 11 -100 16 -27 6 -59 12 -70 14 -281 55 -646 197 -917
357 -90 54 -314 202 -328 218 -3 3 -57 49 -120 102 -156 131 -317 299 -441
459 -295 380 -501 825 -593 1280 -20 102 -25 128 -32 180 -3 25 -7 56 -9 69
-19 117 -26 503 -12 651 25 251 73 482 153 725 98 296 264 614 463 878 45 62
86 114 90 117 3 3 35 39 71 80 207 238 459 447 740 613 175 104 290 161 455
227 106 42 307 106 395 125 119 27 202 44 235 49 22 3 56 8 75 11 50 8 103 13
205 21 50 3 91 7 92 8 4 4 265 -2 338 -8z"/>
<path d="M3509 6493 c-1 -10 -2 -31 -4 -48 -1 -16 -6 -73 -9 -125 -4 -52 -9
-125 -12 -162 l-5 -68 43 -1 c24 -1 52 -3 63 -4 11 -1 63 -5 116 -9 l97 -6 4
45 c2 25 1 45 -2 46 -9 2 -93 9 -150 12 -50 4 -55 6 -56 28 -1 50 2 52 101 45
l92 -6 -1 47 -1 47 -40 2 c-22 1 -63 3 -91 5 -45 2 -50 5 -48 23 1 12 3 26 3
33 1 8 15 10 44 7 23 -2 68 -6 100 -8 56 -4 57 -3 58 23 0 14 2 34 4 43 2 10
0 20 -3 22 -4 2 -61 7 -127 11 -66 3 -132 8 -147 11 -22 3 -28 0 -29 -13z"/>
<path d="M3328 6485 c-2 -2 -48 -7 -103 -10 -84 -6 -127 -10 -178 -14 -4 -1
-7 -22 -6 -47 l3 -46 53 4 c30 3 56 1 59 -4 9 -14 11 -38 18 -163 9 -150 10
-153 44 -149 15 1 38 2 51 3 l24 1 -8 98 c-3 53 -9 125 -11 160 -3 38 -1 62 6
63 5 1 15 3 20 4 6 1 26 3 45 4 34 1 35 3 35 39 0 20 -4 42 -8 47 -7 9 -38 16
-44 10z"/>
<path d="M3945 6457 c-6 -18 -27 -100 -31 -122 -2 -11 -11 -51 -20 -90 -8 -38
-20 -89 -25 -113 -5 -24 -11 -48 -14 -53 -7 -10 21 -22 72 -32 l31 -6 13 65
c9 44 19 69 31 75 16 9 22 3 41 -43 52 -126 56 -132 120 -144 31 -6 57 -10 57
-9 0 2 -13 33 -30 69 -16 36 -43 95 -59 130 l-29 64 100 68 c108 74 108 75 15
89 -45 7 -49 5 -116 -44 -37 -28 -71 -51 -75 -51 -7 0 -4 16 12 88 7 32 7 44
-1 47 -57 19 -88 23 -92 12z"/>
<path d="M2788 6398 l-47 -10 -7 -66 c-3 -37 -8 -75 -10 -85 -2 -10 -6 -46 -9
-80 -4 -34 -10 -91 -15 -127 -5 -36 -10 -68 -10 -72 0 -8 54 0 87 13 21 8 30
37 25 80 -1 4 26 12 59 18 65 13 82 8 95 -31 5 -18 12 -20 52 -14 25 3 50 10
55 15 8 8 -210 372 -222 370 -3 -1 -27 -6 -53 -11z m61 -182 c28 -45 27 -58
-6 -54 -16 2 -27 8 -26 15 2 6 4 26 5 42 1 17 3 31 4 31 1 0 12 -15 23 -34z"/>
<path d="M2430 6293 c-63 -24 -130 -50 -149 -56 -42 -14 -46 -25 -27 -71 l15
-36 46 20 c26 11 50 20 55 20 4 0 33 -65 64 -145 32 -80 62 -145 67 -145 11 0
89 31 89 35 0 2 -25 67 -55 145 -30 78 -55 145 -55 148 0 4 23 15 50 25 54 19
56 26 26 84 l-11 21 -115 -45z"/>
<path d="M4416 6298 c-8 -18 -43 -105 -79 -194 l-64 -161 49 -18 c27 -9 51
-16 53 -14 2 2 21 49 44 104 22 55 41 98 41 95 3 -13 9 -42 13 -77 8 -56 17
-115 22 -143 2 -14 4 -28 4 -31 1 -7 91 -43 95 -38 7 9 146 365 146 375 0 12
-79 46 -90 39 -4 -3 -25 -48 -45 -100 -21 -52 -39 -94 -41 -92 -4 3 -21 115
-30 187 -3 30 -9 58 -13 61 -3 3 -25 13 -49 23 l-43 16 -13 -32z"/>
<path d="M4799 5997 c-45 -78 -92 -158 -105 -179 -25 -40 -24 -43 35 -73 18
-9 37 -13 41 -8 9 9 150 253 150 259 0 2 11 20 25 40 14 20 25 40 25 43 0 3
-20 18 -45 33 l-44 27 -82 -142z"/>
<path d="M2022 6097 c-25 -12 -41 -26 -38 -34 3 -7 12 -58 20 -115 9 -57 18
-113 20 -124 4 -20 8 -45 22 -134 3 -19 8 -37 10 -40 3 -2 25 7 50 20 44 24
44 25 38 66 -6 41 -5 42 41 68 58 32 66 32 94 2 l23 -25 51 26 50 27 -34 30
c-19 17 -70 63 -114 102 -44 40 -100 90 -125 113 -25 22 -49 40 -55 40 -5 0
-29 -10 -53 -22z m131 -204 c-31 -24 -36 -19 -47 47 l-6 34 35 -34 c33 -32 34
-36 18 -47z"/>
<path d="M4964 5871 c-133 -182 -129 -171 -63 -214 l26 -17 46 60 c61 79 73
73 74 -33 0 -45 1 -91 2 -102 1 -17 25 -38 89 -79 12 -7 13 17 9 138 -6 161
-10 149 63 161 46 7 141 26 159 31 17 5 -72 75 -97 76 -9 0 -52 -7 -95 -17
-43 -9 -80 -15 -82 -13 -2 2 14 27 36 55 21 29 39 54 39 56 0 2 -19 17 -42 34
l-43 31 -121 -167z"/>
<path d="M3175 5950 c-256 -38 -469 -98 -679 -192 -581 -261 -1030 -727 -1274
-1323 -35 -87 -94 -267 -107 -329 -55 -268 -64 -356 -60 -621 3 -242 4 -245
36 -420 43 -230 109 -423 219 -640 238 -472 603 -837 1085 -1087 183 -95 470
-192 655 -223 19 -3 60 -10 90 -15 226 -38 536 -34 780 11 996 180 1802 994
1970 1989 44 256 45 578 5 815 -9 50 -18 104 -21 120 -12 71 -78 289 -121 395
-278 700 -869 1239 -1583 1445 -118 34 -140 39 -209 51 -18 3 -43 8 -55 10
-11 3 -39 7 -61 10 -22 3 -51 8 -65 11 -14 3 -128 7 -255 8 -177 2 -258 -2
-350 -15z"/>
<path d="M1684 5873 c-27 -5 -189 -135 -189 -151 0 -16 244 -312 257 -312 20
0 154 125 176 163 38 69 14 155 -65 235 -56 55 -117 78 -179 65z m96 -130 c31
-27 63 -81 63 -109 0 -26 -48 -84 -68 -84 -6 0 -36 30 -66 67 -89 111 -85 103
-58 125 50 40 82 40 129 1z"/>
<path d="M5759 5158 c-1 -63 -12 -144 -20 -154 -6 -8 -116 -36 -151 -39 -27
-1 -6 -16 63 -45 l81 -33 -6 -91 c-6 -89 -6 -91 13 -69 10 12 37 43 60 69 l41
47 68 -26 c37 -14 75 -29 85 -33 13 -5 5 15 -28 70 l-46 76 21 27 c12 16 40
47 62 71 45 49 53 47 -75 16 -32 -8 -62 -12 -67 -9 -5 3 -28 37 -51 75 -23 39
-43 70 -45 70 -2 0 -4 -10 -5 -22z"/>
<path d="M1045 4950 c-21 -44 -41 -80 -44 -80 -3 0 -24 4 -46 9 -22 5 -60 12
-85 15 l-45 6 66 -63 66 -63 -38 -75 c-21 -41 -38 -77 -39 -81 0 -4 37 11 81
33 l81 41 65 -63 65 -64 -7 40 c-16 93 -22 135 -18 139 3 3 39 22 81 42 l77
38 -45 8 c-25 5 -63 10 -85 13 -22 3 -43 9 -47 13 -4 4 -14 43 -23 86 -8 44
-16 80 -18 82 -2 2 -20 -32 -42 -76z"/>
<path d="M6280 4054 c-96 -52 -182 -98 -190 -103 -14 -8 -15 -24 -5 -76 2 -11
4 -25 4 -31 1 -5 36 -16 79 -23 42 -7 86 -15 97 -17 11 -2 34 -7 50 -9 17 -3
68 -13 113 -21 46 -9 86 -13 90 -10 3 3 1 27 -4 53 -9 46 -11 48 -51 56 -32 6
-43 13 -43 26 0 10 -3 38 -6 62 -6 43 -5 45 29 61 34 16 36 19 31 60 -3 23 -8
47 -12 54 -5 9 -59 -16 -182 -82z m44 -127 c7 -28 6 -29 -36 -25 -24 2 -41 8
-38 13 4 9 63 45 66 41 1 0 4 -14 8 -29z"/>
<path d="M657 4096 c-75 -22 -127 -101 -127 -192 0 -49 39 -113 81 -134 49
-26 65 -25 73 3 12 45 7 72 -16 82 -54 24 -55 110 -2 134 63 28 173 1 194 -49
17 -42 2 -83 -37 -94 -25 -8 -32 -16 -37 -45 -11 -70 -10 -73 31 -66 57 9 95
36 121 87 40 78 28 171 -30 225 -53 50 -171 73 -251 49z"/>
<path d="M726 3693 c-1 -1 -48 -3 -104 -4 l-103 -1 3 -52 3 -51 87 0 87 0 3
-62 3 -63 -30 -1 c-16 -1 -56 -2 -87 -2 -46 0 -58 -4 -59 -16 0 -9 -2 -33 -3
-54 l-2 -39 200 3 c111 1 206 4 211 6 6 2 10 16 9 31 -1 15 -3 38 -3 52 -1 24
-3 25 -73 25 l-73 0 -1 63 -1 62 73 0 73 0 0 53 -1 53 -105 -1 c-57 0 -106 -1
-107 -2z"/>
<path d="M6427 3605 c3 -73 0 -96 -9 -94 -7 1 -79 1 -160 0 -163 -1 -157 2
-149 -73 l3 -38 200 5 c109 2 202 7 206 9 4 2 7 22 6 43 -1 21 -3 84 -3 141
l-1 102 -48 0 -48 0 3 -95z"/>
<path d="M6195 3348 c-161 -57 -183 -266 -37 -354 121 -73 289 -24 322 95 32
115 -16 213 -125 255 -34 13 -128 15 -160 4z m153 -118 c98 -60 38 -181 -80
-163 -47 7 -78 24 -101 54 -17 24 -18 31 -7 63 6 20 21 43 33 51 31 22 115 19
155 -5z"/>
<path d="M527 3284 c-6 -6 -3 -34 9 -91 2 -13 8 -22 12 -22 4 1 21 1 38 0 29
-1 32 -5 38 -38 4 -21 9 -50 12 -65 5 -24 1 -30 -31 -45 -36 -17 -37 -19 -31
-62 3 -24 6 -50 6 -58 0 -13 42 7 195 92 22 12 72 39 110 60 39 20 74 41 78
45 4 4 5 30 1 58 l-6 50 -47 8 c-25 4 -50 8 -56 10 -12 3 -46 9 -195 35 -63
12 -118 23 -121 25 -3 2 -9 1 -12 -2z m281 -149 c4 -3 -67 -45 -76 -45 -4 0
-9 13 -10 29 -2 29 -2 29 40 24 24 -3 44 -7 46 -8z"/>
<path d="M6027 2953 l-18 -57 50 -80 c27 -45 48 -82 46 -84 -2 -2 -31 4 -64
14 -34 9 -64 14 -67 11 -3 -3 -11 -25 -19 -49 l-13 -44 194 -58 c107 -31 198
-55 203 -52 5 3 11 18 14 33 3 16 9 36 12 45 5 14 -6 20 -63 37 -99 30 -98 43
1 80 45 17 89 35 97 39 15 9 53 122 41 122 -4 0 -63 -23 -131 -50 -69 -28
-129 -49 -135 -46 -5 2 -35 47 -65 99 -30 53 -57 96 -60 97 -3 0 -14 -26 -23
-57z"/>
<path d="M920 2911 c-36 -10 -121 -32 -190 -50 -69 -19 -126 -34 -127 -36 -3
-1 61 -243 71 -271 3 -8 17 -9 49 -1 l45 10 -24 86 c-13 47 -24 89 -24 93 0 5
17 11 75 24 36 8 226 62 230 65 8 8 -19 99 -29 98 -6 0 -40 -8 -76 -18z"/>
<path d="M1030 2618 c-25 -11 -54 -24 -65 -28 -11 -4 -40 -17 -65 -28 -25 -11
-80 -34 -122 -52 -43 -17 -78 -36 -78 -41 0 -12 39 -89 44 -89 2 0 34 14 72
30 37 17 69 29 71 26 2 -2 -26 -25 -62 -50 -36 -26 -65 -52 -65 -57 0 -14 31
-73 42 -80 6 -4 28 -2 49 2 22 5 56 11 77 14 35 4 34 3 -23 -24 -33 -16 -66
-30 -72 -30 -18 -1 -16 -22 5 -68 l17 -40 130 55 c254 107 247 103 240 132 -9
34 -37 94 -48 101 -5 4 -27 2 -48 -2 -22 -5 -56 -12 -77 -15 -20 -3 -55 -9
-77 -14 -22 -5 -41 -7 -43 -6 -2 2 42 37 98 77 70 51 100 78 96 89 -11 34 -32
86 -41 101 -9 16 -14 15 -55 -3z"/>
<path d="M5923 2557 c-46 -31 -86 -110 -86 -167 0 -55 22 -93 68 -114 69 -33
106 -18 170 69 31 42 64 75 74 75 27 -1 38 -31 27 -72 -11 -38 -40 -61 -70
-56 -21 4 -27 -1 -45 -41 -23 -54 -16 -62 49 -63 56 -1 105 35 135 97 31 64
37 100 25 147 -12 42 -46 73 -98 88 -52 14 -93 -10 -149 -87 -35 -47 -53 -63
-68 -61 -13 2 -21 12 -23 30 -4 36 39 82 68 73 17 -5 24 1 40 37 18 40 18 44
3 56 -25 19 -84 13 -120 -11z"/>
<path d="M1230 2256 c-8 -7 -80 -58 -160 -111 -80 -54 -147 -99 -149 -101 -2
-2 13 -25 33 -52 20 -27 36 -55 36 -61 0 -6 3 -11 8 -11 4 0 27 -31 51 -70 43
-69 44 -69 71 -55 55 28 55 36 -5 124 -30 45 -55 83 -55 85 0 3 13 14 29 25
l28 20 53 -79 54 -78 35 26 c20 14 37 27 38 27 1 0 -21 36 -49 78 -49 74 -50
78 -32 92 10 8 22 15 26 15 4 0 31 -35 59 -77 29 -43 53 -79 55 -81 4 -6 74
43 74 51 0 16 -163 247 -174 247 -6 0 -18 -6 -26 -14z"/>
<path d="M5775 2210 c-68 -34 -114 -118 -108 -198 3 -51 13 -71 60 -122 65
-73 189 -97 265 -53 50 29 90 86 95 137 3 25 11 46 17 46 6 0 19 13 29 29 l17
29 -98 56 c-54 31 -101 56 -104 56 -8 0 -88 -138 -88 -151 0 -5 17 -17 39 -28
l38 -20 19 34 c23 44 31 44 39 1 11 -58 -25 -105 -82 -106 -66 0 -136 47 -148
101 -11 49 42 120 79 106 18 -7 28 2 55 45 l23 38 -27 10 c-40 15 -76 12 -120
-10z"/>
<path d="M1420 1942 c-19 -15 -42 -34 -50 -42 -9 -8 -64 -53 -123 -99 -59 -46
-107 -88 -107 -92 0 -4 15 -23 33 -43 l32 -37 40 33 c81 67 73 65 106 27 16
-19 29 -41 29 -49 0 -9 -20 -33 -45 -53 -25 -21 -45 -45 -45 -53 0 -9 15 -33
32 -54 24 -29 36 -36 45 -28 7 6 13 16 13 23 0 7 18 27 39 44 21 18 44 45 51
62 7 16 18 29 24 28 36 -4 60 5 94 35 32 30 37 40 37 78 0 40 -8 54 -80 145
-44 56 -82 102 -85 102 -3 1 -21 -12 -40 -27z m95 -195 c8 -22 -11 -47 -35
-47 -10 0 -33 19 -51 41 l-33 42 29 23 29 23 28 -32 c15 -18 30 -40 33 -50z"/>
<path d="M5435 1940 l-29 -30 32 -32 32 -32 29 30 30 31 -32 31 -33 32 -29
-30z"/>
<path d="M5555 1895 c-75 -26 -135 -110 -135 -187 1 -162 200 -280 328 -195
62 41 95 96 95 160 0 144 -159 266 -288 222z m134 -132 c53 -48 66 -90 42
-134 -32 -60 -110 -57 -170 5 -69 71 -42 166 47 166 31 0 48 -8 81 -37z"/>
<path d="M5367 1868 l-28 -31 27 -29 c35 -35 45 -35 71 1 l22 28 -33 32 -32
31 -27 -32z"/>
<path d="M5288 1638 c-21 -16 -38 -34 -38 -40 0 -5 19 -32 42 -60 l43 -50 -45
-39 c-25 -21 -47 -39 -50 -39 -3 0 -26 24 -50 54 l-45 53 -37 -29 c-21 -16
-38 -35 -38 -41 0 -7 15 -28 33 -48 17 -20 75 -88 127 -151 l95 -116 42 31
c47 33 48 29 -20 111 l-49 60 43 38 c24 20 47 38 51 38 4 0 31 -29 62 -65 l54
-64 39 31 c21 16 37 35 35 40 -2 7 -209 263 -251 310 -3 4 -23 -7 -43 -24z"/>
<path d="M1643 1635 c-35 -15 -61 -49 -69 -89 -5 -29 12 -66 62 -136 39 -55
43 -86 13 -95 -45 -15 -107 64 -82 104 10 16 6 23 -24 47 -48 38 -46 38 -66 5
-55 -94 38 -238 163 -254 64 -8 128 44 137 110 4 34 -1 47 -47 115 -55 81 -59
108 -16 108 36 0 72 -53 58 -85 -9 -19 -6 -27 25 -56 l34 -34 20 24 c44 53 33
123 -28 186 -60 61 -117 78 -180 50z"/>
<path d="M2170 1261 l-20 -40 55 -25 55 -25 -29 -63 c-16 -35 -45 -98 -65
-142 -20 -43 -36 -82 -36 -85 0 -4 20 -17 45 -28 l46 -21 50 107 c28 58 58
123 66 144 8 20 19 37 25 37 5 0 28 -9 50 -20 23 -11 43 -20 45 -20 1 0 12 18
23 40 l21 41 -93 43 c-104 49 -209 96 -214 96 -2 0 -13 -18 -24 -39z"/>
<path d="M4611 1197 l-43 -22 6 -75 c4 -41 8 -88 10 -105 6 -41 15 -119 22
-191 3 -32 8 -61 10 -63 2 -3 26 6 53 18 l48 23 -7 39 -7 40 57 29 57 29 30
-31 30 -30 44 22 c24 12 46 24 48 26 4 4 -306 315 -312 313 -1 0 -22 -10 -46
-22z m104 -174 c13 -16 25 -31 25 -34 0 -9 -50 -30 -51 -21 0 4 -2 24 -5 45
-5 44 -1 46 31 10z"/>
<path d="M2537 1123 c-3 -10 -33 -98 -67 -196 -34 -98 -60 -180 -58 -181 2 -2
69 -25 150 -53 l147 -50 15 44 c12 33 12 45 3 48 -7 3 -50 18 -96 35 -47 17
-86 32 -88 33 -3 4 17 67 21 67 1 0 42 -13 90 -30 l87 -29 8 22 c25 68 28 63
-60 94 -84 29 -98 41 -83 73 9 17 13 17 94 -11 47 -16 90 -29 97 -29 12 0 41
76 32 84 -4 3 -278 96 -284 96 -1 0 -5 -8 -8 -17z"/>
<path d="M4374 1088 c-59 -19 -63 -22 -83 -72 -12 -28 -30 -68 -39 -90 l-17
-38 -23 70 -23 71 -47 -16 c-26 -9 -49 -17 -51 -19 -2 -2 5 -30 16 -61 11 -32
40 -119 63 -193 24 -74 44 -136 45 -137 0 -1 24 5 52 14 l51 16 -19 55 c-21
61 -24 102 -9 102 6 0 41 -22 78 -48 37 -27 73 -52 79 -56 14 -8 124 25 120
36 -3 10 -207 148 -218 148 -16 0 -10 29 16 80 26 51 75 161 72 159 -1 0 -30
-10 -63 -21z"/>
<path d="M2856 1001 c-3 -9 -10 -45 -15 -81 -6 -36 -20 -114 -31 -174 -11 -61
-20 -115 -20 -122 0 -17 92 -36 101 -22 4 6 10 35 14 64 3 30 14 59 24 68 16
15 20 10 61 -74 24 -50 51 -92 60 -94 8 -3 37 -8 63 -12 l49 -7 -58 109 c-31
60 -61 113 -66 119 -18 20 -5 36 71 95 44 33 82 60 86 60 3 0 3 -88 0 -195
l-6 -195 55 0 54 0 1 107 c1 59 3 109 5 111 3 2 28 -40 57 -94 29 -54 60 -105
70 -115 19 -19 98 -24 100 -6 1 13 5 126 10 292 l4 110 -53 3 c-37 2 -52 -1
-53 -10 -1 -14 -6 -136 -8 -183 -1 -25 -11 -12 -64 85 l-62 114 -55 3 c-30 1
-77 7 -105 12 l-49 9 -66 -51 c-36 -28 -71 -55 -78 -61 -11 -8 -13 -3 -8 27 3
20 9 53 12 72 4 30 2 35 -18 39 -65 13 -78 13 -82 -3z"/>
<path d="M3866 976 c-58 -22 -87 -56 -93 -108 -6 -54 16 -104 54 -119 14 -5
57 -12 97 -15 94 -6 106 -11 106 -38 0 -48 -96 -63 -127 -21 -16 23 -22 25
-66 19 -45 -7 -48 -8 -42 -32 17 -69 78 -106 164 -100 140 11 210 104 156 209
-20 37 -52 50 -134 55 -88 4 -113 11 -109 32 9 45 104 54 115 11 5 -17 11 -20
36 -15 16 3 38 6 48 6 31 0 23 45 -14 86 -29 31 -39 36 -92 40 -38 3 -74 -1
-99 -10z"/>
<path d="M3614 883 c2 -32 8 -110 12 -173 4 -63 8 -126 10 -140 1 -14 2 -30 3
-37 1 -8 16 -11 45 -9 54 4 66 11 61 35 -2 11 -7 70 -11 133 -4 62 -8 124 -9
138 -2 14 -3 44 -4 68 l-1 42 -55 0 -55 0 4 -57z"/>
</g>
</svg>
